<svg width="29" height="29" viewBox="0 0 29 29" fill="none" xmlns="http://www.w3.org/2000/svg">
<path fill-rule="evenodd" clip-rule="evenodd" d="M21.7003 14.5001C21.7003 18.5319 18.4318 21.8004 14.4 21.8004C10.3682 21.8004 7.09975 18.5319 7.09975 14.5001C7.09975 10.4683 10.3682 7.19984 14.4 7.19984C18.4318 7.19984 21.7003 10.4683 21.7003 14.5001ZM19.2668 14.5001C19.2668 17.188 17.0879 19.3669 14.4 19.3669C11.7121 19.3669 9.53316 17.188 9.53316 14.5001C9.53316 11.8122 11.7121 9.63326 14.4 9.63326C17.0879 9.63326 19.2668 11.8122 19.2668 14.5001Z" fill="black" fill-opacity="0.87"/>
<path fill-rule="evenodd" clip-rule="evenodd" d="M25.9632 6.27096C25.0297 6.82401 23.806 6.69924 23.0034 5.89667C22.2009 5.09409 22.0761 3.87037 22.6291 2.93686C22.6979 2.82087 22.777 2.70937 22.8667 2.60371C22.2032 2.13065 21.4984 1.71172 20.7589 1.35335C20.2547 1.10904 19.7344 0.892873 19.1999 0.7069C18.4353 0.440861 17.6417 0.236599 16.8253 0.100098C16.814 0.238389 16.7912 0.373408 16.7577 0.504187C16.4889 1.55564 15.5352 2.33301 14.4 2.33301C13.2648 2.33301 12.3111 1.55564 12.0423 0.504187C12.0088 0.373408 11.986 0.238389 11.9747 0.100098C11.1583 0.2366 10.3647 0.440859 9.60013 0.7069C9.06565 0.892872 8.5453 1.10903 8.04113 1.35334C7.30157 1.71171 6.59683 2.13065 5.93333 2.60371C6.02297 2.70937 6.10215 2.82087 6.17086 2.93686C6.72391 3.87037 6.59914 5.09409 5.79657 5.89667C4.99399 6.69924 3.77028 6.82401 2.83676 6.27097C2.72078 6.20225 2.60927 6.12307 2.50361 6.03343C2.03055 6.69693 1.61162 7.40168 1.25324 8.14123C1.00893 8.6454 0.792774 9.16575 0.606802 9.70023C0.340762 10.4648 0.136501 11.2584 0 12.0748C0.138293 12.0861 0.273315 12.1089 0.404096 12.1424C1.45555 12.4112 2.23291 13.3649 2.23291 14.5001C2.23291 15.6353 1.45555 16.589 0.404094 16.8578C0.273314 16.8912 0.138293 16.9141 0 16.9254C0.136502 17.7418 0.340763 18.5354 0.606803 19.3C0.792777 19.8344 1.00894 20.3548 1.25325 20.859C1.61162 21.5985 2.03056 22.3033 2.50362 22.9668C2.60927 22.8771 2.72078 22.7979 2.83676 22.7292C3.77027 22.1762 4.99399 22.301 5.79657 23.1035C6.59915 23.9061 6.72391 25.1298 6.17086 26.0633C6.10215 26.1793 6.02297 26.2908 5.93334 26.3965C6.59683 26.8695 7.30158 27.2885 8.04113 27.6468C8.54531 27.8912 9.06565 28.1073 9.60014 28.2933C10.3647 28.5593 11.1583 28.7636 11.9747 28.9001C11.986 28.7618 12.0089 28.6268 12.0423 28.496C12.3111 27.4445 13.2648 26.6672 14.4 26.6672C15.5352 26.6672 16.4889 27.4445 16.7577 28.496C16.7911 28.6268 16.814 28.7618 16.8253 28.9001C17.6417 28.7636 18.4353 28.5593 19.1999 28.2933C19.7343 28.1073 20.2547 27.8912 20.7589 27.6468C21.4984 27.2885 22.2032 26.8695 22.8667 26.3965C22.777 26.2908 22.6979 26.1793 22.6291 26.0633C22.0761 25.1298 22.2009 23.9061 23.0034 23.1035C23.806 22.301 25.0297 22.1762 25.9632 22.7292C26.0792 22.798 26.1907 22.8771 26.2964 22.9668C26.7694 22.3033 27.1884 21.5985 27.5467 20.859C27.7911 20.3548 28.0072 19.8344 28.1932 19.3C28.4592 18.5354 28.6635 17.7418 28.8 16.9254C28.6617 16.9141 28.5267 16.8912 28.3959 16.8578C27.3445 16.589 26.5671 15.6353 26.5671 14.5001C26.5671 13.3649 27.3445 12.4112 28.3959 12.1424C28.5267 12.1089 28.6617 12.0861 28.8 12.0748C28.6635 11.2584 28.4592 10.4648 28.1932 9.70023C28.0072 9.16575 27.7911 8.6454 27.5467 8.14123C27.1884 7.40168 26.7694 6.69693 26.2964 6.03343C26.1907 6.12307 26.0792 6.20224 25.9632 6.27096ZM14.4 4.76642C15.9389 4.76642 17.3102 4.05282 18.2018 2.93808C18.7841 3.12941 19.3471 3.36362 19.8872 3.63707C19.7297 5.05554 20.1948 6.52942 21.2827 7.61735C22.3707 8.70528 23.8446 9.17036 25.263 9.01289C25.5365 9.55297 25.7707 10.116 25.962 10.6983C24.8473 11.5899 24.1337 12.9612 24.1337 14.5001C24.1337 16.039 24.8473 17.4103 25.962 18.3019C25.7707 18.8842 25.5365 19.4472 25.263 19.9873C23.8446 19.8298 22.3707 20.2949 21.2827 21.3828C20.1948 22.4708 19.7297 23.9447 19.8872 25.3631C19.3471 25.6366 18.7841 25.8708 18.2018 26.0621C17.3102 24.9474 15.9389 24.2338 14.4 24.2338C12.8611 24.2338 11.4898 24.9474 10.5982 26.0621C10.0159 25.8708 9.45287 25.6366 8.91279 25.3631C9.07026 23.9447 8.60519 22.4708 7.51725 21.3828C6.42932 20.2949 4.95545 19.8298 3.53698 19.9873C3.26352 19.4472 3.02931 18.8842 2.83798 18.3019C3.95271 17.4103 4.66633 16.039 4.66633 14.5001C4.66633 12.9612 3.95272 11.5899 2.83798 10.6983C3.02931 10.116 3.26352 9.55297 3.53697 9.01289C4.95544 9.17037 6.42932 8.70529 7.51725 7.61735C8.60519 6.52942 9.07027 5.05554 8.91279 3.63707C9.45287 3.36362 10.0159 3.12941 10.5982 2.93807C11.4898 4.05281 12.8611 4.76642 14.4 4.76642Z" fill="black" fill-opacity="0.87"/>
</svg>
