<svg width="34" height="29" viewBox="0 0 34 29" fill="none" xmlns="http://www.w3.org/2000/svg">
<path d="M0.590625 0.223915C0.374062 0.31954 0.255937 0.42079 0.150937 0.606415L0 0.853914V7.06954C0 13.1558 0 13.2908 0.13125 13.5102C0.203437 13.6395 0.3675 13.8027 0.505313 13.8814L0.748125 14.022L4.69219 14.0389L8.64281 14.0558L8.68219 14.7139C8.79375 16.5927 9.58125 18.1452 11.0644 19.4164C12.495 20.6427 14.2734 21.3289 16.3603 21.4527C17.4825 21.5202 18.9197 21.2952 20.0353 20.8845C20.3241 20.7777 20.5734 20.6877 20.5866 20.6877C20.5997 20.6877 20.6062 21.4864 20.6062 22.4595V24.2314H17.3578H14.1094V24.7095V25.1877H17.3578H20.5997L20.6194 26.7514L20.6391 28.3208L20.8162 28.5177C21.1772 28.9227 20.8097 28.9002 27.0834 28.9002H32.7206L33.0094 28.7708C33.2259 28.6808 33.3441 28.5795 33.4556 28.3939L33.6 28.1464V21.9308C33.6 15.8445 33.6 15.7095 33.4688 15.4902C33.3966 15.3608 33.2325 15.1977 33.0947 15.1189L32.8519 14.9783L28.8816 14.9502L24.9047 14.922L24.8981 14.3033C24.8719 12.5483 24.0319 10.8664 22.5422 9.58954C21.0984 8.35204 19.3331 7.67142 17.2397 7.54766C16.1175 7.48017 14.6803 7.70516 13.5647 8.11579C13.2759 8.22266 13.0266 8.31266 13.0134 8.31266C13.0003 8.31266 12.9937 7.51391 12.9937 6.54079V4.76892H16.2422H19.4906V4.29079V3.81266H16.2422H13.0003L12.9806 2.24891L12.9609 0.679539L12.7837 0.482664C12.4228 0.0776634 12.7903 0.100164 6.51656 0.100164H0.879375L0.590625 0.223915ZM11.9437 2.43454V3.81266H9.22031C7.72406 3.81266 6.49687 3.80141 6.49687 3.79016C6.49687 3.77329 6.81844 3.54266 7.21219 3.27829L7.93406 2.78891L7.59937 2.42892C7.38937 2.20391 7.23187 2.08579 7.18594 2.11391C7.14 2.13641 6.41156 2.63141 5.55844 3.21641L4.00969 4.27954L5.63062 5.38766L7.245 6.49579L7.56 6.15829C7.73062 5.97266 7.875 5.80392 7.875 5.78141C7.875 5.75891 7.58625 5.53954 7.23844 5.30329C6.88406 5.06141 6.56906 4.84204 6.52969 4.81392C6.49687 4.79141 7.69781 4.76892 9.20719 4.76892H11.9437V6.82204V8.86954L11.1628 9.53329C10.0275 10.4952 9.36469 11.4345 8.9775 12.627L8.82656 13.0939H4.97437H1.11563V7.07516V1.05641H6.52969H11.9437V2.43454ZM15.5531 8.63329C15.5137 8.68954 15.2775 8.97641 15.0216 9.26892C14.7656 9.56704 14.385 10.1239 14.1553 10.5177L13.7484 11.232L12.3178 11.2377H10.8872L11.0972 10.9677C11.6812 10.242 12.9806 9.34204 14.0044 8.97079C14.3522 8.84142 15.3366 8.57704 15.6056 8.53766C15.6122 8.53766 15.5925 8.58266 15.5531 8.63329ZM19.0641 8.79079C19.5431 8.92579 20.2519 9.22954 20.7375 9.50517C21.2362 9.78079 22.1944 10.5852 22.5028 10.9677L22.7128 11.2377H21.2822L19.8516 11.232L19.4447 10.5177C19.215 10.1239 18.8344 9.56704 18.5784 9.26892C17.8959 8.48704 17.9156 8.53204 18.3619 8.62204C18.5719 8.66704 18.8869 8.74016 19.0641 8.79079ZM17.4366 9.49392C17.9353 10.0789 18.6309 11.0689 18.6375 11.1927C18.6375 11.2208 17.8106 11.2377 16.8 11.2377C15.7894 11.2377 14.9625 11.2208 14.9625 11.1927C14.9691 10.9789 16.6359 8.81891 16.8 8.81891C16.8328 8.81891 17.115 9.12267 17.4366 9.49392ZM13.2037 12.8239C13.0725 13.3639 13.0462 13.617 13.0462 14.5002C13.0462 15.3833 13.0725 15.6364 13.2037 16.1708L13.3612 16.8064H11.8256H10.2966L10.2047 16.6208C10.1587 16.5195 10.0472 16.2214 9.96844 15.9627C9.83719 15.5464 9.8175 15.3495 9.8175 14.5002C9.8175 13.6508 9.83719 13.4539 9.96844 13.0377C10.0472 12.7789 10.1587 12.4808 10.2047 12.3795L10.2966 12.1939H11.8256H13.3612L13.2037 12.8239ZM19.1887 12.4864C19.4184 13.1895 19.4578 13.482 19.4578 14.5002C19.4578 15.5183 19.4184 15.8108 19.1887 16.5083L19.0903 16.8064H16.8H14.5097L14.4112 16.5083C14.1816 15.8108 14.1422 15.5183 14.1422 14.5002C14.1422 13.482 14.1816 13.1895 14.4112 12.4864L14.5097 12.1939H16.8H19.0903L19.1887 12.4864ZM23.3953 12.3795C23.4412 12.4808 23.5528 12.7789 23.6316 13.0377C23.7628 13.4539 23.7825 13.6508 23.7825 14.5002C23.7825 15.3495 23.7628 15.5464 23.6316 15.9627C23.5528 16.2214 23.4412 16.5195 23.3953 16.6208L23.3034 16.8064H21.7744H20.2387L20.3962 16.1708C20.5275 15.6364 20.5537 15.3833 20.5537 14.5002C20.5537 13.617 20.5275 13.3639 20.3962 12.8239L20.2387 12.1939H21.7744H23.3034L23.3953 12.3795ZM32.4844 21.9252V27.9439H27.0703H21.6562V26.5658V25.1877H24.3797C25.8759 25.1877 27.1031 25.1989 27.1031 25.2102C27.1031 25.227 26.7816 25.4577 26.3878 25.722L25.6659 26.2114L26.0006 26.5714C26.2106 26.7964 26.3681 26.9145 26.4141 26.8864C26.46 26.8639 27.1884 26.3689 28.0416 25.7839L29.5903 24.7208L27.9694 23.6127L26.355 22.5045L26.04 22.842C25.8694 23.0277 25.725 23.1964 25.725 23.2189C25.725 23.2414 26.0334 23.4664 26.4141 23.7252C26.7947 23.9839 27.1031 24.2033 27.1031 24.2145C27.1031 24.2202 25.8759 24.2314 24.3797 24.2314H21.6562V22.1727V20.1139L22.3322 19.5627C23.4544 18.6458 24.2025 17.6164 24.5897 16.4577L24.7734 15.9064H28.6322H32.4844V21.9252ZM14.1553 18.4827C14.385 18.8764 14.7656 19.4333 15.0216 19.7314C15.7041 20.5133 15.6844 20.4683 15.2381 20.3783C14.3653 20.2039 13.7222 19.962 12.9412 19.5289C12.3309 19.1914 11.445 18.4714 11.0972 18.027L10.8872 17.7627H12.3178L13.7484 17.7683L14.1553 18.4827ZM18.6375 17.802C18.6309 18.0214 16.9641 20.1814 16.8 20.1814C16.6359 20.1814 14.9691 18.0214 14.9625 17.802C14.9625 17.7795 15.7894 17.7627 16.8 17.7627C17.8106 17.7627 18.6375 17.7795 18.6375 17.802ZM22.5028 18.027C22.155 18.4714 21.2691 19.1914 20.6587 19.5289C19.8778 19.962 19.2347 20.2039 18.3619 20.3783C17.9156 20.4683 17.8959 20.5189 18.5719 19.7314C18.8278 19.4389 19.215 18.8764 19.4447 18.4827L19.8516 17.7683H21.2822L22.7128 17.7627L22.5028 18.027Z" fill="black" fill-opacity="0.87"/>
<path d="M2.70377 7.98645L2.72346 8.45332L3.79314 8.4702L4.85627 8.48145V8.00332V7.5252H3.77346H2.68408L2.70377 7.98645Z" fill="black" fill-opacity="0.87"/>
<path d="M5.97192 8.00332V8.48145H7.57974H9.18755V8.00332V7.5252H7.57974H5.97192V8.00332Z" fill="black" fill-opacity="0.87"/>
<path d="M2.70377 9.84289L2.72346 10.3098L5.43377 10.3266L8.13752 10.3379V9.85977V9.38164H5.41408H2.68408L2.70377 9.84289Z" fill="black" fill-opacity="0.87"/>
<path d="M2.69067 11.7157V12.1938H4.8563H7.02192V11.7157V11.2376H4.8563H2.69067V11.7157Z" fill="black" fill-opacity="0.87"/>
<path d="M25.4625 17.2846V17.7627H26.5453H27.6281V17.2846V16.8064H26.5453H25.4625V17.2846Z" fill="black" fill-opacity="0.87"/>
<path d="M28.7438 17.2846V17.7627H29.8266H30.9094V17.2846V16.8064H29.8266H28.7438V17.2846Z" fill="black" fill-opacity="0.87"/>
<path d="M25.4625 19.141V19.6191H28.186H30.916L30.8963 19.1523L30.8766 18.691L28.1728 18.6741L25.4625 18.6629V19.141Z" fill="black" fill-opacity="0.87"/>
<path d="M26.5781 20.997V21.4751H28.7437H30.9159L30.8962 21.0082L30.8766 20.547L28.7306 20.5301L26.5781 20.5188V20.997Z" fill="black" fill-opacity="0.87"/>
<path d="M23.7235 3.01379C23.415 3.13754 23.0738 3.41317 22.9294 3.66067C22.8704 3.75067 22.8047 3.97567 22.7916 4.16129C22.6866 5.14567 23.7694 5.88817 24.885 5.60129C25.2525 5.51129 25.7579 5.10629 25.8891 4.79692C26.1647 4.18942 25.876 3.45254 25.2394 3.10942C24.826 2.89004 24.1369 2.85067 23.7235 3.01379ZM24.7472 3.97567C24.9769 4.17254 24.99 4.37504 24.7932 4.56629C24.5372 4.80817 24.091 4.76879 23.9204 4.48754C23.7957 4.27942 23.8482 4.07129 24.0647 3.92504C24.301 3.76754 24.5241 3.78442 24.7472 3.97567Z" fill="black" fill-opacity="0.87"/>
<path d="M20.6062 4.29092V4.76904H21.1312H21.6562V4.29092V3.81279H21.1312H20.6062V4.29092Z" fill="black" fill-opacity="0.87"/>
<path d="M27.1031 4.29092V4.76904H27.6281H28.1531V4.29092V3.81279H27.6281H27.1031V4.29092Z" fill="black" fill-opacity="0.87"/>
<path d="M8.67564 23.4046C8.34752 23.4946 7.83564 23.9165 7.71095 24.2034C7.54033 24.5802 7.59939 25.1034 7.84877 25.4465C8.37377 26.1777 9.61408 26.3127 10.3294 25.7165C10.651 25.4521 10.7691 25.2327 10.8085 24.839C10.9135 23.849 9.79783 23.0952 8.67564 23.4046ZM9.68627 24.5184C9.80439 24.7209 9.75189 24.929 9.53533 25.0752C9.29908 25.2327 9.07595 25.2159 8.85283 25.0246C8.6297 24.8277 8.61002 24.6421 8.79377 24.4396C9.03002 24.1865 9.50908 24.2259 9.68627 24.5184Z" fill="black" fill-opacity="0.87"/>
<path d="M5.4469 24.7094V25.1875H5.9719H6.4969V24.7094V24.2312H5.9719H5.4469V24.7094Z" fill="black" fill-opacity="0.87"/>
<path d="M11.9437 24.7094V25.1875H12.4687H12.9937V24.7094V24.2312H12.4687H11.9437V24.7094Z" fill="black" fill-opacity="0.87"/>
</svg>
