<svg width="25" height="25" viewBox="0 0 25 25" fill="none" xmlns="http://www.w3.org/2000/svg">
<path fill-rule="evenodd" clip-rule="evenodd" d="M8.95172 19.3452C7.30416 17.7019 7.30375 15.0379 8.95049 13.3941L5.96781 10.4167L4.47586 11.9048L0 7.44048L7.45977 0L11.9356 4.46428L10.4437 5.95238L13.4276 8.92857C15.0756 7.28609 17.7478 7.28528 19.3954 8.92857L20.8873 10.4167L16.6565 14.6366L22.9113 20.8752L25 25L20.8435 22.9376L14.5888 16.699L10.4437 20.8333L8.95172 19.3452ZM4.47586 8.95848L2.95392 7.44048L7.45977 2.94628L8.98171 4.46428L7.48976 5.95239L13.4276 11.8748L14.9045 10.4017C15.7368 9.5716 17.0862 9.5716 17.9184 10.4017L17.9334 10.4167L10.4437 17.8871L10.4287 17.8721C9.59641 17.042 9.59641 15.6961 10.4287 14.866L11.9056 13.3929L5.96781 7.47039L4.47586 8.95848Z" fill="#4C505B"/>
</svg>
