<svg width="36" height="29" viewBox="0 0 36 29" fill="none" xmlns="http://www.w3.org/2000/svg">
<path d="M3 0.100098C1.34375 0.100098 0 1.30947 0 2.8001V14.5001H9C9.55 14.5001 10 14.9051 10 15.4001C10 15.8951 9.55 16.3001 9 16.3001H0V19.9001H9C9.55 19.9001 10 20.3051 10 20.8001C10 21.2951 9.55 21.7001 9 21.7001H0V26.2001C0 27.6907 1.34375 28.9001 3 28.9001H16.6188C16.225 28.3263 16 27.6513 16 26.9257C16 24.2876 17.6125 21.987 20 20.7832V15.3888V2.8001C20 1.30947 18.6563 0.100098 17 0.100098H3ZM9.5 3.7001H10.5C11.05 3.7001 11.5 4.1051 11.5 4.6001V5.9501H13C13.55 5.9501 14 6.3551 14 6.8501V7.7501C14 8.2451 13.55 8.6501 13 8.6501H11.5V10.0001C11.5 10.4951 11.05 10.9001 10.5 10.9001H9.5C8.95 10.9001 8.5 10.4951 8.5 10.0001V8.6501H7C6.45 8.6501 6 8.2451 6 7.7501V6.8501C6 6.3551 6.45 5.9501 7 5.9501H8.5V4.6001C8.5 4.1051 8.95 3.7001 9.5 3.7001ZM32 15.4001C32 14.2066 31.4732 13.062 30.5355 12.2181C29.5979 11.3742 28.3261 10.9001 27 10.9001C25.6739 10.9001 24.4021 11.3742 23.4645 12.2181C22.5268 13.062 22 14.2066 22 15.4001C22 16.5936 22.5268 17.7382 23.4645 18.5821C24.4021 19.426 25.6739 19.9001 27 19.9001C28.3261 19.9001 29.5979 19.426 30.5355 18.5821C31.4732 17.7382 32 16.5936 32 15.4001ZM18 26.937C18 28.0226 18.975 28.9001 20.1813 28.9001H33.8188C35.025 28.9001 36 28.0226 36 26.937C36 24.0457 33.3938 21.7001 30.1813 21.7001H23.8188C20.6063 21.7001 18 24.0457 18 26.937Z" fill="black" fill-opacity="0.87"/>
</svg>
