<svg width="30" height="29" viewBox="0 0 30 29" fill="none" xmlns="http://www.w3.org/2000/svg">
<path d="M6.62179 1.32995C6.92725 2.27502 6.43088 3.29322 5.51998 3.60824L4.09088 4.09765V10.8988C4.09088 13.8802 6.43634 16.2992 9.32725 16.2992C12.2182 16.2992 14.5636 13.8802 14.5636 10.8988V4.09765L13.14 3.60824C12.2236 3.29322 11.7327 2.27502 12.0382 1.32995C12.3436 0.384882 13.3309 -0.121405 14.2472 0.193618L15.6709 0.683029C17.0945 1.17244 18.0545 2.54504 18.0545 4.09765V10.8988C18.0545 15.2416 15.0763 18.8644 11.1109 19.7138C11.4545 22.8584 14.04 25.2998 17.1818 25.2998C20.5582 25.2998 23.2909 22.4815 23.2909 18.9994V15.0222C21.7472 14.3303 20.6727 12.7439 20.6727 10.8988C20.6727 8.41234 22.6254 6.39845 25.0363 6.39845C27.4472 6.39845 29.4 8.41234 29.4 10.8988C29.4 12.7439 28.3254 14.3303 26.7818 15.0222V18.9994C26.7818 24.4673 22.4836 28.9001 17.1818 28.9001C12.1145 28.9001 7.96907 24.8554 7.60907 19.725C3.61088 18.8981 0.599976 15.2641 0.599976 10.8988V4.09765C0.599976 2.55067 1.55998 1.17244 2.98907 0.683029L4.4127 0.193618C5.32907 -0.121405 6.31634 0.390507 6.62179 1.32995ZM25.0363 12.6989C25.4993 12.6989 25.9432 12.5093 26.2706 12.1717C26.5979 11.8341 26.7818 11.3762 26.7818 10.8988C26.7818 10.4214 26.5979 9.96348 26.2706 9.62589C25.9432 9.2883 25.4993 9.09865 25.0363 9.09865C24.5734 9.09865 24.1295 9.2883 23.8021 9.62589C23.4748 9.96348 23.2909 10.4214 23.2909 10.8988C23.2909 11.3762 23.4748 11.8341 23.8021 12.1717C24.1295 12.5093 24.5734 12.6989 25.0363 12.6989Z" fill="black" fill-opacity="0.87"/>
</svg>
