<svg width="36" height="29" viewBox="0 0 36 29" fill="none" xmlns="http://www.w3.org/2000/svg">
<path d="M27.18 0.642103L29.475 3.70189H34.65C35.3981 3.70189 36 4.30372 36 5.05179C36 5.79986 35.3981 6.40169 34.65 6.40169H28.8C28.3725 6.40169 27.9731 6.19921 27.72 5.86173L26.3644 4.05624L23.7206 9.67521C23.5125 10.1139 23.085 10.412 22.6012 10.4458C22.1175 10.4795 21.6506 10.2545 21.3806 9.84958L19.08 6.40169H12.15C11.4019 6.40169 10.8 5.79986 10.8 5.05179C10.8 4.30372 11.4019 3.70189 12.15 3.70189H19.8C20.25 3.70189 20.6719 3.92687 20.925 4.30372L22.2975 6.36232L24.8794 0.878336C25.0819 0.450866 25.4925 0.158387 25.965 0.107766C26.4375 0.0571442 26.8988 0.25963 27.18 0.642103ZM18 9.1015H18.7144L19.8787 10.8508C20.5087 11.7957 21.6 12.33 22.7306 12.2457C23.8612 12.1613 24.8625 11.4751 25.3463 10.4458L25.9819 9.1015H30.6C33.5812 9.1015 36 11.5201 36 14.5011V27.1002C36 28.0958 35.1956 28.9001 34.2 28.9001C33.2044 28.9001 32.4 28.0958 32.4 27.1002V25.3004H19.8H18H3.6V27.1002C3.6 28.0958 2.79562 28.9001 1.8 28.9001C0.804375 28.9001 0 28.0958 0 27.1002V5.50176C0 4.5062 0.804375 3.70189 1.8 3.70189C2.79562 3.70189 3.6 4.5062 3.6 5.50176V19.9007H16.2V10.9014C16.2 9.90582 17.0044 9.1015 18 9.1015ZM9.9 9.1015C11.0935 9.1015 12.2381 9.57557 13.082 10.4194C13.9259 11.2633 14.4 12.4078 14.4 13.6012C14.4 14.7946 13.9259 15.9391 13.082 16.7829C12.2381 17.6268 11.0935 18.1009 9.9 18.1009C8.70653 18.1009 7.56193 17.6268 6.71802 16.7829C5.87411 15.9391 5.4 14.7946 5.4 13.6012C5.4 12.4078 5.87411 11.2633 6.71802 10.4194C7.56193 9.57557 8.70653 9.1015 9.9 9.1015Z" fill="black" fill-opacity="0.87"/>
</svg>
