<svg width="18" height="21" viewBox="0 0 18 21" fill="none" xmlns="http://www.w3.org/2000/svg">
<path d="M18 20.5H0V18.5952C0 17.3323 0.592632 16.1211 1.64752 15.2281C2.70242 14.335 4.13316 13.8333 5.625 13.8333H12.375C13.8668 13.8333 15.2976 14.335 16.3525 15.2281C17.4074 16.1211 18 17.3323 18 18.5952V20.5ZM9 11.9286C8.11358 11.9286 7.23583 11.7808 6.41689 11.4936C5.59794 11.2064 4.85382 10.7855 4.22703 10.2549C3.60023 9.72428 3.10303 9.09434 2.76381 8.40105C2.42459 7.70776 2.25 6.9647 2.25 6.21429C2.25 5.46388 2.42459 4.72081 2.76381 4.02752C3.10303 3.33423 3.60023 2.7043 4.22703 2.17368C4.85382 1.64306 5.59794 1.22214 6.41689 0.934974C7.23583 0.647804 8.11358 0.5 9 0.5C10.7902 0.5 12.5071 1.10204 13.773 2.17368C15.0388 3.24531 15.75 4.69876 15.75 6.21429C15.75 7.72981 15.0388 9.18326 13.773 10.2549C12.5071 11.3265 10.7902 11.9286 9 11.9286Z" fill="#03053D"/>
</svg>
