<svg width="24" height="24" viewBox="0 0 24 24" fill="none" xmlns="http://www.w3.org/2000/svg">
<path d="M17.2862 19.1385V3.78499C17.2854 3.50103 17.1722 3.22894 16.9714 3.02816C16.7706 2.82737 16.4985 2.7142 16.2146 2.71338H4.06966C3.7857 2.7142 3.51361 2.82737 3.31283 3.02816C3.11204 3.22894 2.99887 3.50103 2.99805 3.78499V19.5019C2.99946 19.9752 3.18808 20.4286 3.52272 20.7633C3.85736 21.0979 4.31082 21.2865 4.78406 21.288H19.4294" stroke="white" stroke-width="1.4312" stroke-linejoin="round"/>
<path d="M19.4303 21.2867C18.8619 21.2867 18.3168 21.0609 17.9148 20.659C17.5129 20.2571 17.2871 19.7119 17.2871 19.1435V6.28418H20.5019C20.7861 6.28418 21.0587 6.39708 21.2597 6.59805C21.4606 6.79901 21.5735 7.07158 21.5735 7.35579V19.1435C21.5735 19.7119 21.3477 20.2571 20.9458 20.659C20.5439 21.0609 19.9987 21.2867 19.4303 21.2867Z" stroke="white" stroke-width="1.4312" stroke-linejoin="round"/>
<path d="M11.5703 6.28418H14.43" stroke="white" stroke-width="1.4312" stroke-linecap="round" stroke-linejoin="round"/>
<path d="M11.5703 9.1416H14.43" stroke="white" stroke-width="1.4312" stroke-linecap="round" stroke-linejoin="round"/>
<path d="M5.85547 12H14.4296" stroke="white" stroke-width="1.4312" stroke-linecap="round" stroke-linejoin="round"/>
<path d="M5.85547 14.8584H14.4296" stroke="white" stroke-width="1.4312" stroke-linecap="round" stroke-linejoin="round"/>
<path d="M5.85547 17.7153H14.4296" stroke="white" stroke-width="1.4312" stroke-linecap="round" stroke-linejoin="round"/>
<path d="M8.71529 9.85991H5.85556C5.66595 9.85991 5.4841 9.78458 5.35002 9.65051C5.21595 9.51643 5.14062 9.33458 5.14062 9.14497V6.28524C5.14062 6.09563 5.21595 5.91379 5.35002 5.77971C5.4841 5.64564 5.66595 5.57031 5.85556 5.57031H8.71529C8.9049 5.57031 9.08674 5.64564 9.22082 5.77971C9.3549 5.91379 9.43022 6.09563 9.43022 6.28524V9.14497C9.43022 9.33458 9.3549 9.51643 9.22082 9.65051C9.08674 9.78458 8.9049 9.85991 8.71529 9.85991Z" fill="white"/>
</svg>
