<svg width="36" height="29" viewBox="0 0 36 29" fill="none" xmlns="http://www.w3.org/2000/svg">
<path d="M17.4653 7.42768C17.8721 7.06504 18.0325 6.49518 17.8205 5.98864C17.6887 5.68356 17.5455 5.38424 17.3851 5.09644L17.2075 4.7856C17.0356 4.4978 16.8465 4.21574 16.646 3.94521C16.3194 3.50774 15.7465 3.36383 15.2308 3.53652L13.6151 4.07184C13.0021 3.5653 12.2973 3.15086 11.541 2.86881L11.1916 1.19952C11.0827 0.6642 10.6702 0.238245 10.1316 0.174928C9.75347 0.123122 9.36959 0.100098 8.97999 0.100098H8.93989C8.55028 0.100098 8.16641 0.123122 7.78827 0.169171C7.2497 0.232489 6.83718 0.6642 6.72833 1.19377L6.37883 2.86881C5.61682 3.15661 4.91782 3.5653 4.30478 4.07184L2.68335 3.54228C2.1677 3.36959 1.59475 3.51349 1.26818 3.95096C1.06765 4.2215 0.878574 4.50355 0.700962 4.79136L0.529079 5.09644C0.368655 5.38424 0.225419 5.68356 0.0936419 5.9944C-0.118347 6.49518 0.042077 7.06504 0.448867 7.43343L1.7208 8.57315C1.65778 8.95881 1.6234 9.36174 1.6234 9.77043C1.6234 10.1791 1.65778 10.582 1.7208 10.9735L0.448867 12.1132C0.042077 12.4758 -0.118347 13.0457 0.0936419 13.5522C0.225419 13.8573 0.368655 14.1566 0.529079 14.4502L0.700962 14.7495C0.872845 15.0431 1.06192 15.3194 1.26818 15.5899C1.59475 16.0274 2.1677 16.1713 2.68335 15.9986L4.29905 15.4633C4.9121 15.9698 5.61682 16.3842 6.3731 16.6663L6.7226 18.3413C6.83146 18.8767 7.24397 19.3026 7.78254 19.3659C8.16641 19.412 8.55601 19.435 8.95134 19.435C9.34668 19.435 9.73628 19.412 10.1201 19.3659C10.6587 19.3026 11.0712 18.8709 11.1801 18.3413L11.5296 16.6663C12.2916 16.3785 12.9906 15.9698 13.6036 15.4633L15.2193 15.9986C15.735 16.1713 16.3079 16.0274 16.6345 15.5899C16.835 15.3194 17.0241 15.0431 17.196 14.7495L17.3736 14.4387C17.534 14.1509 17.6773 13.8515 17.809 13.5465C18.021 13.0457 17.8606 12.4758 17.4538 12.1074L16.1819 10.9677C16.2449 10.5763 16.2793 10.1734 16.2793 9.76467C16.2793 9.35599 16.2449 8.95306 16.1819 8.56164L17.4538 7.42192L17.4653 7.42768ZM6.20695 9.77043C6.20695 9.03765 6.49669 8.33488 7.01244 7.81673C7.52819 7.29857 8.2277 7.00748 8.95708 7.00748C9.68645 7.00748 10.386 7.29857 10.9017 7.81673C11.4175 8.33488 11.7072 9.03765 11.7072 9.77043C11.7072 10.5032 11.4175 11.206 10.9017 11.7241C10.386 12.2423 9.68645 12.5334 8.95708 12.5334C8.2277 12.5334 7.52819 12.2423 7.01244 11.7241C6.49669 11.206 6.20695 10.5032 6.20695 9.77043ZM28.7064 28.4491C29.0674 28.8578 29.6346 29.019 30.1388 28.806C30.4425 28.6736 30.7404 28.5297 31.0269 28.3686L31.3362 28.1901C31.6227 28.0174 31.9035 27.8275 32.1727 27.626C32.6082 27.2979 32.7514 26.7223 32.5795 26.2042L32.0467 24.581C32.5509 23.9651 32.9634 23.2571 33.2441 22.4973L34.9114 22.1462C35.4442 22.0368 35.8682 21.6223 35.9312 21.0813C35.9771 20.6956 36 20.3042 36 19.907C36 19.5098 35.9771 19.1184 35.9312 18.7328C35.8682 18.1917 35.4385 17.7772 34.9114 17.6679L33.2441 17.311C32.9577 16.5454 32.5509 15.8432 32.0467 15.2273L32.5795 13.604C32.7514 13.086 32.6082 12.5104 32.1727 12.1823C31.9035 11.9808 31.6227 11.7908 31.3362 11.6124L31.0326 11.4397C30.7461 11.2785 30.4482 11.1346 30.1388 11.0022C29.6403 10.7893 29.0731 10.9504 28.7064 11.3591L27.572 12.637C27.1824 12.5737 26.7813 12.5391 26.3746 12.5391C25.9678 12.5391 25.5667 12.5737 25.1771 12.637L24.0427 11.3591C23.6817 10.9504 23.1145 10.7893 22.6103 11.0022C22.3067 11.1346 22.0087 11.2785 21.7165 11.4397L21.4186 11.6124C21.1264 11.7851 20.8514 11.975 20.5821 12.1823C20.1467 12.5104 20.0034 13.086 20.1753 13.604L20.7081 15.2273C20.204 15.8432 19.7914 16.5512 19.5107 17.311L17.8434 17.6564C17.3106 17.7657 16.8866 18.1802 16.8236 18.7212C16.7778 19.1069 16.7548 19.4983 16.7548 19.8955C16.7548 20.2927 16.7778 20.6841 16.8236 21.0698C16.8866 21.6108 17.3163 22.0253 17.8434 22.1346L19.5107 22.4858C19.7972 23.2513 20.204 23.9536 20.7081 24.5695L20.1753 26.1927C20.0034 26.7108 20.1467 27.2864 20.5821 27.6145C20.8514 27.816 21.1264 28.0059 21.4186 28.1786L21.728 28.357C22.0145 28.5182 22.3124 28.6621 22.616 28.7945C23.1145 29.0075 23.6817 28.8463 24.0484 28.4376L25.1828 27.1598C25.5724 27.2231 25.9735 27.2576 26.3803 27.2576C26.7871 27.2576 27.1881 27.2231 27.5777 27.1598L28.7122 28.4376L28.7064 28.4491ZM26.3746 17.1383C26.7357 17.1383 27.0933 17.2098 27.427 17.3486C27.7606 17.4875 28.0638 17.691 28.3192 17.9476C28.5746 18.2041 28.7771 18.5087 28.9153 18.8439C29.0535 19.1791 29.1247 19.5384 29.1247 19.9013C29.1247 20.2641 29.0535 20.6234 28.9153 20.9586C28.7771 21.2938 28.5746 21.5984 28.3192 21.855C28.0638 22.1115 27.7606 22.315 27.427 22.4539C27.0933 22.5927 26.7357 22.6642 26.3746 22.6642C26.0134 22.6642 25.6558 22.5927 25.3221 22.4539C24.9885 22.315 24.6853 22.1115 24.4299 21.855C24.1745 21.5984 23.972 21.2938 23.8338 20.9586C23.6956 20.6234 23.6244 20.2641 23.6244 19.9013C23.6244 19.5384 23.6956 19.1791 23.8338 18.8439C23.972 18.5087 24.1745 18.2041 24.4299 17.9476C24.6853 17.691 24.9885 17.4875 25.3221 17.3486C25.6558 17.2098 26.0134 17.1383 26.3746 17.1383Z" fill="black" fill-opacity="0.87"/>
</svg>
