<svg width="30" height="29" viewBox="0 0 30 29" fill="none" xmlns="http://www.w3.org/2000/svg">
<path d="M13.9236 0.121222C13.3567 0.179176 12.2875 0.365921 11.8784 0.468952C7.68768 1.55722 4.62355 4.54512 3.71938 8.43454C3.56869 9.10424 3.56151 9.29099 3.52563 13.6698L3.48257 18.2096L3.31035 18.4994C3.21706 18.6604 2.62864 19.446 2.01151 20.2445C1.3872 21.043 0.820298 21.7964 0.741362 21.9187C0.540436 22.26 0.554787 23.2646 0.777242 23.6381C1.0284 24.0631 1.40873 24.4044 1.85363 24.5975L2.26266 24.7778L5.82193 24.7972L9.37403 24.8165L9.46732 25.1513C9.60366 25.6407 10.0629 26.4521 10.4791 26.9479C11.168 27.7593 12.3664 28.4741 13.5648 28.7767C14.2034 28.9377 15.775 28.9442 16.4352 28.7767C18.4014 28.3002 20.059 26.832 20.5255 25.1513L20.6259 24.8165L24.178 24.7972L27.7373 24.7778L28.1463 24.5975C28.5912 24.4044 28.9715 24.0631 29.2227 23.6381C29.4452 23.2646 29.4595 22.26 29.2586 21.9187C29.1797 21.7964 28.6128 21.043 27.9884 20.2445C27.3713 19.446 26.7829 18.6604 26.6896 18.4994L26.5174 18.2096L26.4743 13.6376C26.4241 8.55689 26.4313 8.61485 25.9002 7.17241C24.587 3.61784 21.3005 1.0163 17.1886 0.275768C16.4926 0.146978 14.5192 0.0568275 13.9236 0.121222ZM16.9375 2.32995C19.2984 2.81291 21.3148 4.04928 22.6567 5.84588C23.238 6.62506 23.7044 7.59741 23.9843 8.64704C24.1278 9.1622 24.135 9.43909 24.1852 13.7986C24.2354 18.7698 24.2211 18.6217 24.6373 19.4138C24.7306 19.6005 25.3262 20.4183 25.9577 21.2362L27.1058 22.7172L21.0565 22.7365C17.7268 22.743 12.2731 22.743 8.94347 22.7365L2.89415 22.7172L4.0423 21.2362C4.67378 20.4183 5.26939 19.6005 5.36267 19.4138C5.77888 18.6217 5.76453 18.7698 5.81476 13.7986C5.86499 9.43909 5.87217 9.1622 6.01569 8.64704C6.60411 6.47051 7.94602 4.71898 9.94093 3.51481C11.0389 2.85155 12.6319 2.32351 13.9595 2.18828C14.5838 2.12389 16.3275 2.2076 16.9375 2.32995ZM18.2004 24.9195C18.0641 25.235 17.6479 25.7566 17.3035 26.0464C15.9257 27.1798 13.9236 27.1411 12.5889 25.9434C12.2301 25.6214 11.7708 25.0032 11.7708 24.8422C11.7708 24.8229 13.2275 24.81 15.0072 24.81C18.0569 24.81 18.2435 24.8165 18.2004 24.9195Z" fill="black" fill-opacity="0.87"/>
</svg>
